# xmcd
#
# Track frame offsets:
#	150
#	14028
#	24785
#	49324
#	67624
#	79711
#
# Disc length: 1309 seconds
#
# Revision: 4
# Processed by: cddbd v1.5.2PL0 Copyright (c) Steve Scherf et al.
# Submitted via: audiograbber 1.83.01
#
DISCID=3d051b06
DTITLE=Sophie Hunger - The Danger of Light Deluxe Edition CD2
DYEAR=2012
DGENRE=Indie
TTITLE0=First we Leave Manhattan
TTITLE1=What it is
TTITLE2=My oh My II
TTITLE3=The Musician
TTITLE4=One too Many Mornings
TTITLE5=Ne me quitte pas
EXTD=
EXTT0=
EXTT1=
EXTT2=
EXTT3=
EXTT4=
EXTT5=
PLAYORDER=
